<svg width="75" height="74" viewBox="0 0 75 74" fill="none" xmlns="http://www.w3.org/2000/svg">
<g filter="url(#filter0_d_2501_228)">
<path d="M50.5936 17.9301C49.9381 17.2782 48.8793 17.2782 48.2227 17.9301L31.5981 34.5721L26.8409 29.5289C26.5243 29.1865 26.0799 28.9918 25.6132 28.9907C25.1477 28.9918 24.7033 29.1865 24.3867 29.5289L18.4195 35.9334C17.7898 36.5842 17.7898 37.6184 18.4195 38.2691L30.3047 50.1704H30.3035C30.6213 50.4859 31.0504 50.6606 31.4972 50.6582C31.9439 50.6606 32.3731 50.4859 32.6909 50.1704L56.5609 26.2501C56.8786 25.9347 57.058 25.5044 57.058 25.0565C57.058 24.6085 56.8786 24.1794 56.5609 23.8628L50.5936 17.9301ZM31.5312 46.5064L21.9829 36.942L25.6145 33.0421L30.3374 38.0854C30.654 38.4137 31.0914 38.5989 31.5475 38.5989C32.0036 38.5989 32.441 38.4137 32.7576 38.0854L49.4161 21.4103L52.9972 24.9914L31.5312 46.5064Z" fill="#859BA6"/>
<path d="M37.5003 0.667046C28.6592 0.667046 20.1817 4.17879 13.9296 10.4296C7.67875 16.6817 4.16699 25.1592 4.16699 34.0002C4.16699 42.8413 7.67875 51.3188 13.9296 57.5708C20.1817 63.8217 28.6592 67.3334 37.5003 67.3334C46.3414 67.3334 54.819 63.8217 61.071 57.5708C67.3219 51.3188 70.8337 42.8413 70.8337 34.0002C70.8254 25.1628 67.3102 16.6886 61.0602 10.4401C54.8118 4.19049 46.3375 0.675153 37.5 0.666748L37.5003 0.667046ZM37.5003 63.9559C29.5505 63.9559 21.9263 60.7971 16.3052 55.1746C10.6838 49.5532 7.52746 41.9281 7.52866 33.9783C7.52986 26.0285 10.6898 18.4044 16.3136 12.7845C21.9359 7.16432 29.5625 4.00919 37.5123 4.01249C45.4622 4.01484 53.0852 7.17603 58.7042 12.8007C64.3231 18.4242 67.4774 26.0507 67.4726 34.0005C67.4632 41.9471 64.303 49.5652 58.6843 55.1839C53.0656 60.8025 45.4472 63.9628 37.5009 63.9721L37.5003 63.9559Z" fill="#859BA6"/>
</g>
<defs>
<filter id="filter0_d_2501_228" x="0.166992" y="0.666748" width="74.667" height="74.6667" filterUnits="userSpaceOnUse" color-interpolation-filters="sRGB">
<feFlood flood-opacity="0" result="BackgroundImageFix"/>
<feColorMatrix in="SourceAlpha" type="matrix" values="0 0 0 0 0 0 0 0 0 0 0 0 0 0 0 0 0 0 127 0" result="hardAlpha"/>
<feOffset dy="4"/>
<feGaussianBlur stdDeviation="2"/>
<feComposite in2="hardAlpha" operator="out"/>
<feColorMatrix type="matrix" values="0 0 0 0 0 0 0 0 0 0 0 0 0 0 0 0 0 0 0.25 0"/>
<feBlend mode="normal" in2="BackgroundImageFix" result="effect1_dropShadow_2501_228"/>
<feBlend mode="normal" in="SourceGraphic" in2="effect1_dropShadow_2501_228" result="shape"/>
</filter>
</defs>
</svg>
